<svg width="380" height="379" xmlns="http://www.w3.org/2000/svg" xmlns:xlink="http://www.w3.org/1999/xlink" overflow="hidden"><defs><clipPath id="clip0"><path d="M481.573 511.183 495.692 405.623 601.252 419.742 587.133 525.302Z" fill-rule="evenodd" clip-rule="evenodd"/></clipPath><clipPath id="clip1"><path d="M481.573 511.183 495.692 405.623 601.252 419.742 587.133 525.302Z" fill-rule="evenodd" clip-rule="evenodd"/></clipPath><clipPath id="clip2"><path d="M481.573 511.183 495.692 405.623 601.252 419.742 587.133 525.302Z" fill-rule="evenodd" clip-rule="evenodd"/></clipPath></defs><g transform="translate(-450 -182)"><path d="M451 220.552C451 199.26 468.26 182 489.552 182L790.448 182C811.74 182 829 199.26 829 220.552L829 521.448C829 542.74 811.74 560 790.448 560L489.552 560C468.26 560 451 542.74 451 521.448Z" fill="#FAF9F1" fill-rule="evenodd"/><path d="M527 239.73C527 228.833 535.833 220 546.73 220L733.27 220C744.167 220 753 228.833 753 239.73L753 502.27C753 513.167 744.167 522 733.27 522L546.73 522C535.833 522 527 513.167 527 502.27Z" fill="#F3F0E5" fill-rule="evenodd"/><path d="M579 254.333C579 252.492 580.492 251 582.333 251L697.667 251C699.508 251 701 252.492 701 254.333L701 267.667C701 269.508 699.508 271 697.667 271L582.333 271C580.492 271 579 269.508 579 267.667Z" fill="#FAF9F1" fill-rule="evenodd"/><path d="M579 304.306C579 297.51 584.51 292 591.306 292L688.694 292C695.49 292 701 297.51 701 304.306L701 460.694C701 467.49 695.49 473 688.694 473L591.306 473C584.51 473 579 467.49 579 460.694Z" fill="#FAF9F1" fill-rule="evenodd"/><g><g><g><path d="M103.291 44.3378 73.5144 14.5617 78.4758 9.60022C83.9567 4.12105 92.841 4.12105 98.322 9.60022L108.252 19.5233C113.734 25.0033 113.736 33.8901 108.256 39.3724 108.255 39.3737 108.253 39.3751 108.252 39.3764L103.291 44.3378ZM93.3604 54.2609 33.8152 113.813 4.03905 113.813 4.03905 84.037 63.5913 24.4918 93.3604 54.2609Z" fill="#F4B183" transform="matrix(1 0 0 1.00315 676 208.128)"/></g></g></g><g clip-path="url(#clip0)"><g clip-path="url(#clip1)"><g clip-path="url(#clip2)"><path d="M490.545 458.659C486.766 486.915 506.351 512.551 534.609 516.331 562.868 520.11 588.502 500.523 592.282 472.266 592.888 467.737 589.45 463.258 584.938 462.654 582.669 462.351 580.897 462.686 578.982 464.149 577.131 465.066 575.283 465.965 573.032 465.664 568.503 465.058 565.084 460.571 565.688 456.052L567.049 445.877C569.167 430.046 558.393 415.955 542.562 413.838 517.691 410.511 494.326 430.393 490.545 458.659M537.256 496.543C536.65 501.072 532.156 504.49 527.644 503.887 523.124 503.282 519.695 498.804 520.301 494.275 520.906 489.753 525.392 486.326 529.912 486.931 534.424 487.535 537.861 492.022 537.256 496.543M516.912 476.563C516.307 481.092 511.821 484.512 507.301 483.907 502.781 483.303 499.351 478.824 499.957 474.295 500.561 469.775 505.049 466.347 509.569 466.952 514.089 467.556 517.517 472.042 516.912 476.563M520.692 448.305C520.087 452.826 515.601 456.253 511.08 455.649 506.56 455.044 503.132 450.558 503.736 446.037 504.341 441.518 508.828 438.088 513.348 438.693 517.869 439.298 521.297 443.784 520.692 448.305M545.571 434.374C544.966 438.895 540.471 442.322 535.96 441.719 531.439 441.114 528.011 436.627 528.616 432.107 529.221 427.586 533.707 424.158 538.228 424.763 542.739 425.366 546.176 429.853 545.571 434.374" fill="#CB6441"/></g></g></g><g><g><g><path d="M83.172 49.938C83.172 49.938 81.5598 52.0423 79.692 50.634 79.6304 50.5855 79.5723 50.5329 79.518 50.4763L79.518 50.4818 79.4147 50.3703 79.17 50.1093 79.1646 50.0875C77.0874 47.695 74.0397 42.7904 74.0397 42.7904 71.9028 38.7639 70.2144 41.5914 70.2144 41.5914 68.8768 42.7687 65.2228 48.7825 65.2228 48.7825 60.9109 54.4674 57.6022 50.9385 57.6022 50.9385 56.2618 50.1881 51.2974 42.3201 51.2974 42.3201 49.6063 39.778 49.0191 40.5801 49.0191 40.5801 48.7662 40.6562 48.0865 41.48 48.0865 41.48 46.4498 42.8774 42.5838 49.1985 42.5838 49.1985 38.6769 54.6387 35.0392 50.1637 35.0392 50.1637 34.123 49.5764 29.9144 43.0568 29.9144 43.0568 27.4186 39.0983 26.293 41.1537 26.293 41.1537 22.8457 44.8431 22.9734 45.8164 22.9734 45.8164 19.7137 51.1506 17.903 51.7269 17.903 51.7269 12.9032 55.0248 3.84431 39.8297 3.84431 39.8297 3.84431 39.8297 3.6975 38.5084 4.30378 37.6275 5.00522 36.6052 6.47606 36.0071 6.47606 36.0071 6.47606 36.0071 8.58309 39.0739 9.57 40.3435 11.3617 42.6517 12.8053 44.2259 12.8053 44.2259 16.2038 48.0621 17.4897 45.7158 17.4897 45.7158 19.1074 43.8099 23.5281 37.0729 23.5281 37.0729 28.1119 31.7523 31.9589 38.4785 31.9589 38.4785 33.1334 40.1233 36.559 45.0742 36.559 45.0742 38.5356 47.9234 40.0635 45.0551 40.0635 45.0551 40.8411 44.0546 44.0981 39.1609 44.0981 39.1609 48.739 31.8338 52.7791 36.5917 52.7791 36.5917 53.3663 37.1572 57.8795 44.0954 57.8795 44.0954 60.7722 48.5161 62.3437 45.2536 62.3437 45.2536 63.0532 44.3646 65.6877 40.194 65.6877 40.194 69.8121 33.1878 72.9332 35.1398 72.9332 35.1398 76.1549 37.1436 79.2244 42.7197 79.2244 42.7197L79.5071 43.1629 79.5207 43.152C79.518 43.152 82.8702 47.85 83.172 49.938Z" fill="#404040" transform="matrix(1 0 0 1.01149 599 302)"/></g></g></g></g></svg>